<?xml version="1.0" encoding="utf-8"?>
<!-- Generator: Adobe Illustrator 26.3.0, SVG Export Plug-In . SVG Version: 6.00 Build 0)  -->
<svg version="1.1" id="Camada_1" xmlns="http://www.w3.org/2000/svg" xmlns:xlink="http://www.w3.org/1999/xlink" x="0px" y="0px"
	 viewBox="0 0 272.6 149.2" style="enable-background:new 0 0 272.6 149.2;" xml:space="preserve">
<style type="text/css">
	.st0{fill:#023E8A;}
</style>
<g>
	<path class="st0" d="M5.6,0.1h1c2.6,0,4.8,2.1,6.4,6.3c0.1,0,4.2,8.3,12.4,24.8c0.1-0.1,5-9.7,14.6-28.7C41.3,0.9,42.8,0,44.4,0h1
		c2.1,0,3.7,1.2,5.1,3.5C50.9,4.2,51,4.8,51,5.4v1.5c0,0.7-1.9,4.7-5.8,12.1c-9.6,19.1-14.5,28.9-14.9,29.3
		c-1.3,1.5-2.7,2.2-4.2,2.2H25c-2.7,0-4.7-1.9-6.2-5.7C6.4,20.4,0.2,8,0.2,7.6C0.1,7.3,0,7,0,6.5V5.7c0-2.6,1.6-4.5,4.8-5.6
		C5,0.1,5.3,0.1,5.6,0.1z"/>
	<path class="st0" d="M60.4,0.1h39.3c2.2,0,3.9,1.3,5.3,3.8c0.3,0.8,0.4,1.4,0.4,1.8v1.4c0,2-1.3,3.7-3.8,5.1
		c-0.8,0.3-1.6,0.5-2.3,0.5H67.1v6.4H92c3.2,0,5.3,1.3,6.4,3.8c0.3,0.7,0.5,1.4,0.5,2v0.9c0,2.6-1.5,4.4-4.5,5.7
		c-0.5,0.1-1,0.2-1.4,0.2H67.1v6.4h31.5c3.7,0,6,1.8,6.8,5.4v1.7c0,1.9-1.2,3.6-3.6,5c-0.7,0.3-1.3,0.5-1.9,0.5H60.1
		c-2.1,0-3.9-1.3-5.2-3.9c-0.3-0.7-0.4-1.3-0.4-1.8V6.1c0-2.6,1.5-4.4,4.5-5.7C59.5,0.2,60,0.1,60.4,0.1z"/>
	<path class="st0" d="M114.9,0.1h0.9c1.8,0,3.6,1.1,5.5,3.2c11.8,11.6,20.5,20.1,26,25.4V6.9c0-3.1,1.4-5.3,4.3-6.5
		c0.6-0.2,1.2-0.3,1.7-0.3h0.9c2.2,0,3.9,1.3,5.3,3.8c0.3,0.8,0.4,1.4,0.4,1.8v39.4c0,1.9-1.2,3.6-3.6,5c-0.7,0.3-1.3,0.5-1.9,0.5
		H153c-1.8,0-4-1.6-6.7-4.7l-24.7-24.1v22.7c0,2.7-1.6,4.7-4.7,5.9c-0.4,0.1-0.6,0.1-0.9,0.1h-1.4c-2.1,0-3.9-1.3-5.2-3.9
		c-0.3-0.7-0.4-1.3-0.4-1.8V5.9c0-2.6,1.5-4.4,4.5-5.7C114,0.2,114.5,0.1,114.9,0.1z"/>
	<path class="st0" d="M169.4,0.1h0.9c2.1,0,3.8,1.2,5.2,3.6c0.4,0.8,0.6,1.7,0.6,2.8v12.6h25.7V6.9c0-3.4,1.6-5.6,4.9-6.6
		c0.5-0.1,0.8-0.1,1.1-0.1h0.9c2.2,0,3.9,1.3,5.3,3.8c0.3,0.8,0.4,1.4,0.4,1.8v39.4c0,1.9-1.2,3.6-3.6,5c-0.7,0.3-1.3,0.5-1.9,0.5
		h-1.4c-2.2,0-4-1.4-5.3-4.1c-0.3-0.8-0.4-1.7-0.4-2.7V31.7h-25.7v12.9c0,2.7-1.6,4.7-4.7,5.9c-0.4,0.1-0.6,0.1-0.9,0.1h-1.4
		c-2.1,0-3.9-1.3-5.2-3.9c-0.3-0.7-0.4-1.3-0.4-1.8V6c0-2.6,1.5-4.4,4.5-5.7C168.5,0.2,168.9,0.1,169.4,0.1z"/>
	<path class="st0" d="M243,0.1h1.1c2.6,0,4.7,2.1,6.3,6.2c12,23.7,18.2,36,18.6,36.9v1.9c0,2.1-1.4,3.8-4.2,5.1
		c-0.6,0.1-1.1,0.2-1.5,0.2h-0.9c-2.6,0-4.7-2.1-6.4-6.4c-8.3-16.4-12.5-24.6-12.6-24.7c-9.3,18.6-14.1,28.3-14.7,29
		c-1.4,1.4-2.8,2.1-4.3,2.1h-0.9c-2.1,0-3.9-1.3-5.3-3.9c-0.2-0.8-0.3-1.3-0.3-1.8v-0.8c0-0.9,1.2-3.6,3.6-8.1l16.9-33.5
		C239.8,0.9,241.3,0.1,243,0.1z"/>
</g>
<g>
	<path class="st0" d="M5.5,55.4h28.2c4,0,7.7,1.9,11.1,5.7c2,2.9,3,5.6,3,8.1v1.9c0,3.8-1.9,7.4-5.6,10.7c-2.9,2-5.8,3.1-8.8,3.1
		H11.9V97c0,2.6-1.5,4.4-4.5,5.6c-0.3,0.1-0.6,0.1-0.8,0.1H5.3c-2,0-3.6-1.2-4.9-3.6C0.2,98.5,0,97.9,0,97.4V60.9
		c0-2.4,1.4-4.2,4.2-5.3C4.7,55.5,5.1,55.4,5.5,55.4z M11.9,67.2v6.1H36v-6.1H11.9z"/>
	<path class="st0" d="M74.6,55.4h1c2.4,0,4.4,1.9,5.9,5.8C92.8,83.4,98.6,95,98.9,95.8v1.8c0,2-1.3,3.6-4,4.8
		c-0.6,0.1-1,0.2-1.4,0.2h-0.9c-2.5,0-4.5-2-6-6c-7.8-15.3-11.7-23.1-11.8-23.1C66.1,91,61.5,100,61.1,100.7c-1.3,1.3-2.6,1.9-4,1.9
		h-0.8c-2,0-3.6-1.2-4.9-3.6c-0.2-0.7-0.3-1.3-0.3-1.7v-0.7c0-0.9,1.1-3.4,3.4-7.6l15.9-31.4C71.6,56.2,73,55.4,74.6,55.4z"/>
	<path class="st0" d="M107.7,55.4h28.2c4,0,7.7,1.9,11.1,5.7c2,2.9,3,5.6,3,8.1v1.9c0,3.8-1.9,7.5-5.7,10.8
		c-2.3,1.5-4.2,2.4-5.6,2.6v0.1c4.9,4.3,8.1,7.3,9.6,9c0.7,1.1,1,2.2,1,3.3c0,2.5-1.4,4.3-4.2,5.6c-0.5,0.1-1,0.2-1.2,0.2h-1.3
		c-1.5,0-3.6-1.4-6.1-4.1c-0.9-0.7-5.9-5.3-15-13.7H114V97c0,2.6-1.5,4.4-4.5,5.6c-0.3,0.1-0.6,0.1-0.8,0.1h-1.2
		c-2,0-3.6-1.2-4.9-3.6c-0.2-0.6-0.4-1.2-0.4-1.7V60.9c0-2.4,1.4-4.2,4.2-5.3C106.9,55.5,107.3,55.4,107.7,55.4z M114,67.2v6.1h24.1
		v-6.1H114z"/>
	<path class="st0" d="M176.8,55.4h1c2.4,0,4.4,1.9,5.9,5.8C195,83.4,200.8,95,201.1,95.8v1.8c0,2-1.3,3.6-4,4.8
		c-0.6,0.1-1,0.2-1.4,0.2h-0.9c-2.5,0-4.5-2-6-6C181,81.3,177.1,73.5,177,73.5c-8.7,17.5-13.3,26.5-13.7,27.2
		c-1.3,1.3-2.6,1.9-4,1.9h-0.8c-2,0-3.6-1.2-4.9-3.6c-0.2-0.7-0.3-1.3-0.3-1.7v-0.7c0-0.9,1.1-3.4,3.4-7.6l15.9-31.4
		C173.8,56.2,175.2,55.4,176.8,55.4z"/>
	<path class="st0" d="M237.6,55.4h14.7c5.5,0,10.2,1.9,14.1,5.7c1.7,2.2,2.5,4,2.5,5.7v24.6c0,2.4-1.5,4.9-4.6,7.5
		c-3.8,2.5-7.9,3.8-12.3,3.8h-13.8c-5.3,0-9.9-1.6-13.7-4.9c-2.3-2.3-3.4-4.6-3.4-6.9V67.2c0-3.9,2.7-7.2,8-10
		C232.2,56,235,55.4,237.6,55.4z M232.6,67.1V91h24.9V67.1H232.6z"/>
</g>
<g>
	<path class="st0" d="M6.4,106.8h33c1.8,0,3.3,1.1,4.5,3.2c0.2,0.6,0.3,1.1,0.3,1.5v1.2c0,1.7-1.1,3.1-3.2,4.2
		c-0.7,0.3-1.3,0.4-1.9,0.4h-27v5.4h21.2c2.5,0,4.3,1.3,5.2,3.9c0.1,0.4,0.2,0.8,0.2,1.1v0.4c0,2.3-1.3,4-4,5l-0.9,0.1H12.1V144
		c0,2.3-1.3,4-4,5c-0.3,0.1-0.5,0.1-0.7,0.1H6.2c-1.8,0-3.3-1.1-4.4-3.2c-0.2-0.6-0.3-1.1-0.3-1.5v-32.6c0-2.1,1.3-3.7,3.8-4.7
		C5.7,106.9,6.1,106.8,6.4,106.8z"/>
	<path class="st0" d="M52.1,106.8h0.8c1.7,0,3.2,1,4.4,3c0.3,0.6,0.5,1.4,0.5,2.3v13.7c0,5.3,2.1,9.2,6.3,11.7
		c1.4,0.7,2.8,1.1,4,1.1h0.7c3.3,0,6.2-1.7,8.5-5.2c1.3-2.1,1.9-4.4,1.9-6.8v-13.8c0-2.7,1.1-4.6,3.4-5.6c0.6-0.2,1.2-0.3,1.7-0.3
		H85c1.8,0,3.3,1.1,4.5,3.2c0.2,0.6,0.3,1.1,0.3,1.5v17.5c0,4-1.7,8.3-5,12.6c-3.1,3.4-6.8,5.7-11.1,6.9c-1.6,0.4-3,0.6-4.2,0.6
		h-2.3c-4.2,0-8.4-1.7-12.8-5.1c-3.1-3.1-4.8-5.4-5.3-7.1c-1.4-2.9-2.1-5.7-2.1-8.4v-16.8c0-2.1,1.3-3.7,3.8-4.7
		C51.3,106.9,51.7,106.8,52.1,106.8z"/>
	<path class="st0" d="M97.8,106.8h33c1.8,0,3.3,1.1,4.5,3.2c0.2,0.6,0.3,1.1,0.3,1.5v1.2c0,1.7-1.1,3.1-3.2,4.2
		c-0.7,0.3-1.3,0.4-1.9,0.4h-11v26.9c0,2.2-1.3,3.8-3.9,4.8l-0.9,0.1h-1.2c-1.7,0-3.1-1.1-4.3-3.2c-0.3-0.7-0.4-1.3-0.4-1.9v-26.7
		H98.1c-2.5,0-4.2-1.2-5.2-3.7c-0.1-0.5-0.2-0.9-0.2-1.1v-0.7c0-2.1,1.3-3.7,3.8-4.7C97,106.9,97.4,106.8,97.8,106.8z"/>
	<path class="st0" d="M143.4,106.8h0.8c1.7,0,3.2,1,4.4,3c0.3,0.6,0.5,1.4,0.5,2.3v13.7c0,5.3,2.1,9.2,6.3,11.7
		c1.4,0.7,2.8,1.1,4,1.1h0.7c3.3,0,6.2-1.7,8.5-5.2c1.3-2.1,1.9-4.4,1.9-6.8v-13.8c0-2.7,1.1-4.6,3.4-5.6c0.6-0.2,1.2-0.3,1.7-0.3
		h0.7c1.8,0,3.3,1.1,4.5,3.2c0.2,0.6,0.3,1.1,0.3,1.5v17.5c0,4-1.7,8.3-5,12.6c-3.1,3.4-6.8,5.7-11.1,6.9c-1.6,0.4-3,0.6-4.2,0.6
		h-2.3c-4.2,0-8.4-1.7-12.8-5.1c-3.1-3.1-4.8-5.4-5.3-7.1c-1.4-2.9-2.1-5.7-2.1-8.4v-16.8c0-2.1,1.3-3.7,3.8-4.7
		C142.7,106.9,143.1,106.8,143.4,106.8z"/>
	<path class="st0" d="M189.1,106.8h25.2c3.6,0,6.9,1.7,9.9,5.1c1.8,2.6,2.7,5,2.7,7.2v1.7c0,3.4-1.7,6.7-5.1,9.7
		c-2.1,1.3-3.7,2.1-5,2.3v0.1c4.4,3.9,7.2,6.6,8.6,8.1c0.6,1,0.9,2,0.9,2.9c0,2.2-1.2,3.9-3.7,5c-0.5,0.1-0.9,0.2-1.1,0.2h-1.2
		c-1.4,0-3.2-1.2-5.5-3.7c-0.8-0.6-5.2-4.7-13.4-12.2h-6.7V144c0,2.3-1.3,4-4,5c-0.3,0.1-0.5,0.1-0.7,0.1h-1.2
		c-1.8,0-3.3-1.1-4.4-3.2c-0.2-0.6-0.3-1.1-0.3-1.5v-32.6c0-2.1,1.3-3.7,3.8-4.7C188.4,106.9,188.8,106.8,189.1,106.8z M194.8,117.3
		v5.5h21.5v-5.5H194.8z"/>
	<path class="st0" d="M244.5,106.8h13.2c4.9,0,9.1,1.7,12.6,5.1c1.5,1.9,2.3,3.6,2.3,5.1v22c0,2.2-1.4,4.4-4.1,6.7
		c-3.4,2.3-7,3.4-11,3.4h-12.3c-4.8,0-8.9-1.5-12.2-4.4c-2-2-3-4.1-3-6.2v-21.2c0-3.5,2.4-6.4,7.1-8.9
		C239.7,107.4,242.3,106.8,244.5,106.8z M240.1,117.3v21.3h22.2v-21.3H240.1z"/>
</g>
</svg>
