<?xml version="1.0" encoding="utf-8"?>
<!-- Generator: Adobe Illustrator 26.3.0, SVG Export Plug-In . SVG Version: 6.00 Build 0)  -->
<svg version="1.1" id="Camada_1" xmlns="http://www.w3.org/2000/svg" xmlns:xlink="http://www.w3.org/1999/xlink" x="0px" y="0px"
	 viewBox="0 0 280.8 146.5" style="enable-background:new 0 0 280.8 146.5;" xml:space="preserve">
<style type="text/css">
	.st0{fill:#6C63FF;}
</style>
<g>
	<path class="st0" d="M51.4,0l-4.6,9L25.7,50.4L4.6,9L0,0h10.1l4.6,9l11,21.6L36.7,9l4.6-9H51.4z"/>
	<path class="st0" d="M61.6,13.6v4.7H94v9H61.6v9.5c0,2.5,2.1,4.6,4.6,4.6H103v9H66.2c-7.5,0-13.5-6.1-13.5-13.6V13.6
		c0-7.5,6-13.6,13.5-13.6H103v9H66.2C63.7,9,61.6,11.1,61.6,13.6z"/>
	<path class="st0" d="M160.6,0.1v50.4l-9-6.9l-32.4-25v31.9h-9V0.2l9,6.9l32.4,25V0L160.6,0.1z"/>
	<path class="st0" d="M218.2,0v50.4h-9V27.3h-32.4v23.1h-9V0h9v18.3h32.4V0H218.2z"/>
	<path class="st0" d="M274,50.4H264l-4.6-9l-11-21.6l-11,21.6l-4.6,9h-10.1l4.6-9L248.3,0l21.1,41.4L274,50.4z"/>
</g>
<g>
	<g>
		<path class="st0" d="M64.4,58.2c2.2,2.2,3.5,5.2,3.5,8.6c0,4.9-2.9,9.1-7,11c-1.1,0.5-2.2,0.8-3.4,1c-0.1,0-0.3,0-0.4,0v0.1H35.6
			v20.6h-8V54.7h28.2C59.1,54.7,62.1,56,64.4,58.2L64.4,58.2z M57.5,70.4c1.5-0.6,2.4-2.1,2.4-3.7c0-1.5-0.8-2.5-1.2-2.9
			c-0.5-0.5-1.5-1.1-2.9-1.1H35.6v8.2h20.2C56.4,70.9,57,70.8,57.5,70.4L57.5,70.4z"/>
		<path class="st0" d="M107.4,99.4h-8.9l-4.1-8l-9.8-19.2l-9.8,19.2l-4.1,8h-8.9l4.1-8l18.7-36.7l18.7,36.7L107.4,99.4z"/>
		<path class="st0" d="M147.3,91.5l4.1,8h-8.9l-4.1-8l-4.3-8.4l-0.2-0.4c-1.4-2.3-3.9-3.8-6.8-3.8h-8v20.6h-8V54.8h28.2
			c3.3,0,6.3,1.3,8.5,3.5c2.2,2.2,3.5,5.2,3.5,8.5c0,4.9-2.9,9.1-7,11c-1.1,0.5-2.2,0.8-3.4,1L147.3,91.5z M139.4,70.9
			c0.6,0,1.1-0.1,1.7-0.4c1.5-0.6,2.4-2.1,2.4-3.7c0-1.5-0.8-2.5-1.2-2.9c-0.5-0.5-1.5-1.1-2.9-1.1h-20.2V71L139.4,70.9z"/>
		<path class="st0" d="M200.9,99.4H192l-4.1-8l-9.8-19.2l-9.8,19.2l-4.1,8h-8.9l4.1-8l18.7-36.7l18.7,36.7L200.9,99.4z"/>
	</g>
	<g>
		<path class="st0" d="M255.4,77.7c0,12.7-10.3,23-23,23c-12.7,0-23-10.3-23-23c0-12.7,10.3-23,23-23
			C245.1,54.7,255.4,65,255.4,77.7z M247.2,77.7c0-8.2-6.6-14.8-14.8-14.8s-14.8,6.6-14.8,14.8s6.6,14.8,14.8,14.8
			S247.2,85.9,247.2,77.7z"/>
	</g>
</g>
<g>
	<path class="st0" d="M48.5,104.8v7.4H18.1c-2.1,0-3.8,1.7-3.8,3.8v3.9H41v7.4H14.2v19.1H6.8V116c0-6.2,5-11.2,11.2-11.2H48.5z"/>
	<path class="st0" d="M96,104.8v20.8c0,11.5-9.3,20.8-20.8,20.8c-11.5,0-20.8-9.3-20.8-20.8v-20.8h7.4v20.8c0,7.4,6,13.4,13.4,13.4
		c7.4,0,13.4-6,13.4-13.4v-20.8H96z"/>
	<path class="st0" d="M143.5,104.8v7.4h-17.1v34.2H119v-34.2H102v-7.4H143.5z"/>
	<path class="st0" d="M191.2,104.8v20.8c0,11.5-9.3,20.8-20.8,20.8s-20.8-9.3-20.8-20.8v-20.8h7.4v20.8c0,7.4,6,13.4,13.4,13.4
		s13.4-6,13.4-13.4v-20.8H191.2z"/>
	<path class="st0" d="M230.8,139l3.8,7.4h-8.3l-3.8-7.4l-4-7.8l-0.2-0.4c-1.3-2.1-3.6-3.6-6.3-3.6h-7.4v19.2h-7.4v-41.7h26.3
		c3.1,0,5.9,1.2,7.9,3.3c2,2.1,3.3,4.9,3.3,8c0,4.5-2.7,8.5-6.5,10.2c-1,0.5-2.1,0.8-3.2,0.9L230.8,139z M223.4,119.9
		c0.5,0,1.1-0.1,1.5-0.4c1.4-0.6,2.3-2,2.3-3.5c0-1.4-0.7-2.3-1.1-2.7c-0.5-0.5-1.4-1.1-2.7-1.1h-18.9v7.7L223.4,119.9z"/>
	<path class="st0" d="M280.8,125.6c0,11.5-9.3,20.8-20.8,20.8c-11.5,0-20.8-9.3-20.8-20.8s9.3-20.8,20.8-20.8
		C271.4,104.8,280.8,114.1,280.8,125.6z M273.3,125.6c0-7.4-6-13.4-13.4-13.4c-7.4,0-13.4,6-13.4,13.4c0,7.4,6,13.4,13.4,13.4
		C267.3,139,273.3,133,273.3,125.6z"/>
</g>
</svg>
